<svg width="54" height="54" viewBox="0 0 54 54" fill="none" xmlns="http://www.w3.org/2000/svg">
<path d="M4.62 53.25C4.45465 53.2474 4.29697 53.1798 4.18097 53.062C4.06498 52.9441 3.99998 52.7854 4 52.62V0.619999C4.01928 0.467849 4.09341 0.327959 4.20847 0.226559C4.32353 0.125159 4.47163 0.0692139 4.625 0.0692139C4.77837 0.0692139 4.92647 0.125159 5.04153 0.226559C5.15659 0.327959 5.23072 0.467849 5.25 0.619999V52.62C5.25 52.7871 5.18363 52.9473 5.06548 53.0655C4.94733 53.1836 4.78709 53.25 4.62 53.25Z" fill="#FFFCFC"/>
<path d="M48.62 37.25C48.4547 37.2474 48.297 37.1798 48.181 37.062C48.065 36.9441 48 36.7854 48 36.62V0.619999C48.0193 0.467849 48.0934 0.327959 48.2085 0.226559C48.3235 0.125159 48.4716 0.0692139 48.625 0.0692139C48.7784 0.0692139 48.9265 0.125159 49.0415 0.226559C49.1566 0.327959 49.2307 0.467849 49.25 0.619999V36.62C49.25 36.7027 49.2337 36.7847 49.202 36.8611C49.1704 36.9375 49.124 37.007 49.0655 37.0655C49.007 37.124 48.9375 37.1704 48.8611 37.202C48.7847 37.2337 48.7027 37.25 48.62 37.25Z" fill="#FFFCFC"/>
<path d="M52.62 5.25H0.619999C0.467849 5.23071 0.327959 5.15659 0.226559 5.04153C0.125159 4.92646 0.0692139 4.77836 0.0692139 4.625C0.0692139 4.47163 0.125159 4.32353 0.226559 4.20847C0.327959 4.0934 0.467849 4.01928 0.619999 4H52.62C52.7087 3.98875 52.7988 3.99652 52.8843 4.02279C52.9698 4.04906 53.0487 4.09322 53.1157 4.15234C53.1828 4.21146 53.2366 4.28419 53.2734 4.36568C53.3102 4.44718 53.3292 4.53557 53.3292 4.625C53.3292 4.71442 53.3102 4.80281 53.2734 4.88431C53.2366 4.9658 53.1828 5.03853 53.1157 5.09765C53.0487 5.15677 52.9698 5.20093 52.8843 5.2272C52.7988 5.25347 52.7087 5.26124 52.62 5.25Z" fill="#FFFCFC"/>
<path d="M36.62 49.25H0.619999C0.467849 49.2307 0.327959 49.1566 0.226559 49.0415C0.125159 48.9265 0.0692139 48.7784 0.0692139 48.625C0.0692139 48.4716 0.125159 48.3235 0.226559 48.2085C0.327959 48.0934 0.467849 48.0193 0.619999 48H36.62C36.7087 47.9888 36.7988 47.9965 36.8843 48.0228C36.9698 48.0491 37.0487 48.0932 37.1157 48.1523C37.1828 48.2115 37.2366 48.2842 37.2734 48.3657C37.3102 48.4472 37.3292 48.5356 37.3292 48.625C37.3292 48.7144 37.3102 48.8028 37.2734 48.8843C37.2366 48.9658 37.1828 49.0385 37.1157 49.0977C37.0487 49.1568 36.9698 49.2009 36.8843 49.2272C36.7988 49.2535 36.7087 49.2612 36.62 49.25Z" fill="#FFFCFC"/>
<path d="M20.62 31.25C18.5176 31.25 16.4624 30.6266 14.7143 29.4585C12.9662 28.2905 11.6037 26.6303 10.7992 24.6879C9.9946 22.7455 9.78409 20.6082 10.1942 18.5462C10.6044 16.4842 11.6168 14.5901 13.1034 13.1034C14.5901 11.6168 16.4842 10.6044 18.5462 10.1942C20.6082 9.78409 22.7455 9.9946 24.6879 10.7992C26.6303 11.6037 28.2905 12.9662 29.4585 14.7143C30.6266 16.4624 31.25 18.5176 31.25 20.62C31.2473 23.4384 30.1266 26.1407 28.1336 28.1336C26.1407 30.1266 23.4384 31.2473 20.62 31.25ZM20.62 11.25C18.7644 11.25 16.9505 11.8004 15.4077 12.8315C13.865 13.8626 12.6627 15.3282 11.9531 17.0427C11.2434 18.7573 11.0582 20.6438 11.421 22.4636C11.7837 24.2834 12.6781 25.9548 13.9909 27.2662C15.3037 28.5776 16.976 29.4702 18.7962 29.831C20.6164 30.1918 22.5027 30.0046 24.2165 29.2931C25.9303 28.5816 27.3946 27.3778 28.424 25.834C29.4535 24.2901 30.002 22.4756 30 20.62C29.9947 18.1348 29.0044 15.7531 27.2462 13.9967C25.488 12.2404 23.1052 11.2526 20.62 11.25Z" fill="#FFFCFC"/>
<path d="M34.62 42.25H23.62C23.4547 42.2474 23.297 42.1798 23.181 42.062C23.065 41.9441 23 41.7854 23 41.62V23.62C23 23.4556 23.0653 23.2979 23.1816 23.1816C23.2979 23.0653 23.4556 23 23.62 23H41.62C41.7854 23 41.9441 23.065 42.062 23.181C42.1798 23.297 42.2474 23.4547 42.25 23.62V34.62C42.2612 34.7087 42.2535 34.7988 42.2272 34.8843C42.2009 34.9698 42.1568 35.0487 42.0977 35.1157C42.0385 35.1828 41.9658 35.2366 41.8843 35.2734C41.8028 35.3102 41.7144 35.3292 41.625 35.3292C41.5356 35.3292 41.4472 35.3102 41.3657 35.2734C41.2842 35.2366 41.2115 35.1828 41.1523 35.1157C41.0932 35.0487 41.0491 34.9698 41.0228 34.8843C40.9965 34.7988 40.9888 34.7087 41 34.62V24.25H24.25V41H34.62C34.7087 40.9888 34.7988 40.9965 34.8843 41.0228C34.9698 41.0491 35.0487 41.0932 35.1157 41.1523C35.1828 41.2115 35.2366 41.2842 35.2734 41.3657C35.3102 41.4472 35.3292 41.5356 35.3292 41.625C35.3292 41.7144 35.3102 41.8028 35.2734 41.8843C35.2366 41.9658 35.1828 42.0385 35.1157 42.0977C35.0487 42.1568 34.9698 42.2009 34.8843 42.2272C34.7988 42.2535 34.7087 42.2612 34.62 42.25Z" fill="#FFFCFC"/>
<path d="M42 53.25C41.8675 53.2505 41.7381 53.2093 41.6304 53.1321C41.5227 53.0549 41.4421 52.9457 41.4 52.82L36 36.82C35.9637 36.7098 35.9584 36.5918 35.9849 36.4789C36.0114 36.3659 36.0685 36.2625 36.15 36.18C36.2347 36.0986 36.3398 36.0417 36.4543 36.0152C36.5687 35.9888 36.6882 35.9939 36.8 36.03L52.8 41.43C52.9272 41.4707 53.0381 41.5507 53.1168 41.6586C53.1955 41.7664 53.2379 41.8965 53.2379 42.03C53.2379 42.1635 53.1955 42.2935 53.1168 42.4014C53.0381 42.5092 52.9272 42.5893 52.8 42.63L44.87 44.86L42.64 52.79C42.6037 52.9196 42.5269 53.0343 42.4207 53.117C42.3145 53.1998 42.1846 53.2464 42.05 53.25H42ZM37.62 37.62L42 50.51L43.78 44.18C43.8087 44.0774 43.8633 43.984 43.9387 43.9086C44.014 43.8333 44.1074 43.7787 44.21 43.75L50.51 42L37.62 37.62Z" fill="#FFFCFC"/>
</svg>
