<svg xmlns="http://www.w3.org/2000/svg" viewBox="0 0 53.25 53.25"><defs><style>.cls-1{fill:#262626;}</style></defs><g id="Слой_2" data-name="Слой 2"><g id="Layer_1" data-name="Layer 1"><path class="cls-1" d="M4.62,53.25A.63.63,0,0,1,4,52.62V.62a.63.63,0,0,1,1.25,0v52A.63.63,0,0,1,4.62,53.25Z"/><path class="cls-1" d="M48.62,37.25a.63.63,0,0,1-.62-.63V.62a.63.63,0,0,1,1.25,0v36A.63.63,0,0,1,48.62,37.25Z"/><path class="cls-1" d="M52.62,5.25H.62A.63.63,0,0,1,.62,4h52a.63.63,0,1,1,0,1.25Z"/><path class="cls-1" d="M36.62,49.25H.62A.63.63,0,0,1,.62,48h36a.63.63,0,1,1,0,1.25Z"/><path class="cls-1" d="M20.62,31.25A10.63,10.63,0,1,1,31.25,20.62,10.64,10.64,0,0,1,20.62,31.25Zm0-20A9.38,9.38,0,1,0,30,20.62,9.39,9.39,0,0,0,20.62,11.25Z"/><path class="cls-1" d="M34.62,42.25h-11a.63.63,0,0,1-.62-.63v-18a.62.62,0,0,1,.62-.62h18a.63.63,0,0,1,.63.62v11a.63.63,0,1,1-1.25,0V24.25H24.25V41H34.62a.63.63,0,1,1,0,1.25Z"/><path class="cls-1" d="M42,53.25a.63.63,0,0,1-.6-.43l-5.4-16a.63.63,0,0,1,.15-.64.65.65,0,0,1,.65-.15l16,5.4a.63.63,0,0,1,0,1.2l-7.93,2.23-2.23,7.93a.63.63,0,0,1-.59.46ZM37.62,37.62,42,50.51l1.78-6.33a.62.62,0,0,1,.43-.43L50.51,42Z"/></g></g></svg>