<svg width="54" height="54" viewBox="0 0 54 54" fill="none" xmlns="http://www.w3.org/2000/svg">
<g clip-path="url(#clip0_4_2)">
<path d="M26.62 53.25C26.4547 53.2474 26.297 53.1798 26.181 53.062C26.065 52.9441 26 52.7854 26 52.62V38.62C26.0193 38.4678 26.0934 38.328 26.2085 38.2266C26.3235 38.1252 26.4716 38.0692 26.625 38.0692C26.7784 38.0692 26.9265 38.1252 27.0415 38.2266C27.1566 38.328 27.2307 38.4678 27.25 38.62V52.62C27.25 52.7871 27.1836 52.9473 27.0655 53.0655C26.9473 53.1836 26.7871 53.25 26.62 53.25Z" fill="white"/>
<path d="M12.62 53.25C12.5406 53.264 12.4594 53.264 12.38 53.25C12.3041 53.2184 12.2352 53.1719 12.1773 53.1134C12.1195 53.0549 12.0739 52.9855 12.0432 52.9091C12.0125 52.8328 11.9973 52.7511 11.9984 52.6689C11.9996 52.5866 12.0171 52.5054 12.05 52.43L18.05 38.43C18.116 38.2784 18.239 38.1588 18.3924 38.0971C18.5458 38.0353 18.7174 38.0364 18.87 38.1C18.9459 38.1316 19.0148 38.1781 19.0726 38.2366C19.1305 38.2951 19.1761 38.3646 19.2068 38.4409C19.2375 38.5172 19.2527 38.5989 19.2515 38.6811C19.2504 38.7634 19.2329 38.8446 19.2 38.92L13.2 52.92C13.1448 53.0246 13.0609 53.1112 12.9582 53.1697C12.8554 53.2282 12.7381 53.256 12.62 53.25Z" fill="white"/>
<path d="M40.63 53.25C40.5065 53.2516 40.3852 53.2164 40.2819 53.1486C40.1786 53.0809 40.0978 52.9839 40.05 52.87L34.05 38.87C34.0171 38.7946 33.9996 38.7134 33.9984 38.6311C33.9973 38.5488 34.0125 38.4672 34.0432 38.3909C34.0739 38.3145 34.1195 38.2451 34.1773 38.1866C34.2352 38.128 34.3041 38.0816 34.38 38.05C34.5326 37.9864 34.7042 37.9853 34.8576 38.047C35.011 38.1088 35.134 38.2284 35.2 38.38L41.2 52.38C41.2329 52.4554 41.2504 52.5366 41.2515 52.6189C41.2527 52.7011 41.2375 52.7828 41.2068 52.8591C41.1761 52.9354 41.1305 53.0049 41.0727 53.0634C41.0148 53.1219 40.9459 53.1684 40.87 53.2C40.7936 53.2308 40.7123 53.2478 40.63 53.25Z" fill="white"/>
<path d="M51.62 39.25H1.62C1.18943 39.2474 0.7774 39.0745 0.473875 38.7691C0.17035 38.4637 -8.10276e-06 38.0506 2.89051e-10 37.62L2.89051e-10 1.62C0.00262296 1.19116 0.174143 0.780628 0.477385 0.477385C0.780628 0.174143 1.19116 0.00262296 1.62 2.89052e-10L51.62 2.89051e-10C52.0506 -8.10276e-06 52.4637 0.17035 52.7691 0.473875C53.0745 0.7774 53.2474 1.18943 53.25 1.62V37.62C53.25 37.8341 53.2078 38.046 53.1259 38.2438C53.044 38.4415 52.9239 38.6212 52.7726 38.7726C52.6212 38.9239 52.4415 39.044 52.2438 39.1259C52.046 39.2078 51.8341 39.25 51.62 39.25ZM1.62 1.25C1.52267 1.25253 1.43002 1.29232 1.36117 1.36117C1.29232 1.43002 1.25253 1.52267 1.25 1.62V37.62C1.24997 37.7191 1.28863 37.8142 1.35774 37.8852C1.42686 37.9562 1.52096 37.9974 1.62 38H51.62C51.6699 38 51.7193 37.9902 51.7654 37.9711C51.8115 37.952 51.8534 37.924 51.8887 37.8887C51.924 37.8534 51.952 37.8115 51.9711 37.7654C51.9902 37.7193 52 37.6699 52 37.62V1.62C51.9974 1.52096 51.9562 1.42686 51.8852 1.35774C51.8142 1.28863 51.7191 1.24997 51.62 1.25H1.62Z" fill="white"/>
<path d="M35.91 28.49H15.73C14.2846 28.49 12.8983 27.9158 11.8763 26.8937C10.8542 25.8716 10.28 24.4854 10.28 23.04C10.28 21.5946 10.8542 20.2083 11.8763 19.1863C12.8983 18.1642 14.2846 17.59 15.73 17.59H38.26C38.8295 17.6178 39.3986 17.5296 39.933 17.3308C40.4673 17.132 40.9558 16.8268 41.3686 16.4336C41.7815 16.0404 42.1102 15.5674 42.3347 15.0434C42.5593 14.5193 42.6751 13.9551 42.6751 13.385C42.6751 12.8149 42.5593 12.2507 42.3347 11.7266C42.1102 11.2026 41.7815 10.7296 41.3686 10.3364C40.9558 9.94321 40.4673 9.63796 39.933 9.43917C39.3986 9.24039 38.8295 9.15221 38.26 9.17999H18C17.9113 9.19123 17.8212 9.18346 17.7357 9.15719C17.6502 9.13093 17.5713 9.08676 17.5043 9.02764C17.4372 8.96852 17.3834 8.8958 17.3466 8.8143C17.3098 8.73281 17.2908 8.64441 17.2908 8.55499C17.2908 8.46557 17.3098 8.37717 17.3466 8.29568C17.3834 8.21418 17.4372 8.14145 17.5043 8.08233C17.5713 8.02321 17.6502 7.97905 17.7357 7.95278C17.8212 7.92651 17.9113 7.91874 18 7.92999H38.26C38.996 7.89847 39.7308 8.01622 40.4201 8.27615C41.1094 8.53607 41.739 8.93281 42.2709 9.44246C42.8029 9.95211 43.2262 10.5641 43.5154 11.2417C43.8045 11.9192 43.9536 12.6483 43.9536 13.385C43.9536 14.1217 43.8045 14.8507 43.5154 15.5283C43.2262 16.2058 42.8029 16.8179 42.2709 17.3275C41.739 17.8372 41.1094 18.2339 40.4201 18.4938C39.7308 18.7538 38.996 18.8715 38.26 18.84H15.73C14.6161 18.84 13.5478 19.2825 12.7602 20.0701C11.9725 20.8578 11.53 21.9261 11.53 23.04C11.53 24.1539 11.9725 25.2222 12.7602 26.0098C13.5478 26.7975 14.6161 27.24 15.73 27.24H35.91C35.9987 27.2287 36.0888 27.2365 36.1743 27.2628C36.2598 27.2891 36.3387 27.3332 36.4057 27.3923C36.4728 27.4515 36.5266 27.5242 36.5634 27.6057C36.6002 27.6872 36.6192 27.7756 36.6192 27.865C36.6192 27.9544 36.6002 28.0428 36.5634 28.1243C36.5266 28.2058 36.4728 28.2785 36.4057 28.3376C36.3387 28.3968 36.2598 28.4409 36.1743 28.4672C36.0888 28.4935 35.9987 28.5012 35.91 28.49Z" fill="white"/>
<path d="M22 12.18C21.8622 12.1816 21.728 12.1357 21.62 12.05L17.62 9.05001C17.5409 8.99321 17.4768 8.91801 17.4332 8.8309C17.3897 8.74379 17.368 8.64738 17.37 8.55001C17.3704 8.45305 17.3931 8.35748 17.4365 8.27076C17.4799 8.18403 17.5427 8.10849 17.62 8.05001L21.62 5.05001C21.754 4.95081 21.9219 4.90879 22.0869 4.93316C22.2518 4.95753 22.4004 5.04629 22.5 5.18001C22.5489 5.24557 22.5842 5.32015 22.6042 5.39944C22.6241 5.47874 22.6281 5.56119 22.616 5.64205C22.6039 5.72292 22.576 5.80059 22.5338 5.8706C22.4915 5.94062 22.4359 6.00159 22.37 6.05001L19 8.55001L22.33 11.05C22.4637 11.1496 22.5525 11.2982 22.5769 11.4631C22.6012 11.6281 22.5592 11.796 22.46 11.93C22.4053 12.0017 22.336 12.0611 22.2567 12.1042C22.1775 12.1473 22.09 12.1731 22 12.18Z" fill="white"/>
<path d="M11.4 11.68C10.7805 11.682 10.1744 11.5001 9.65834 11.1574C9.14231 10.8146 8.73957 10.3265 8.50113 9.75474C8.2627 9.18299 8.19928 8.55334 8.31892 7.94552C8.43856 7.3377 8.73588 6.77905 9.17321 6.34031C9.61055 5.90158 10.1682 5.60248 10.7757 5.48089C11.3831 5.35931 12.013 5.42071 12.5855 5.65731C13.158 5.89392 13.6474 6.29509 13.9918 6.81003C14.3362 7.32497 14.52 7.93052 14.52 8.55C14.52 9.3784 14.1916 10.173 13.6068 10.7597C13.022 11.3464 12.2284 11.6774 11.4 11.68ZM11.4 6.68C11.0273 6.67802 10.6625 6.78685 10.3518 6.99267C10.0411 7.19848 9.79857 7.49199 9.65504 7.83592C9.51151 8.17985 9.47344 8.55868 9.54566 8.9243C9.61788 9.28991 9.79714 9.62581 10.0607 9.88933C10.3242 10.1529 10.6601 10.3321 11.0257 10.4043C11.3913 10.4766 11.7701 10.4385 12.1141 10.295C12.458 10.1514 12.7515 9.90891 12.9573 9.59822C13.1631 9.28752 13.272 8.92267 13.27 8.55C13.2674 8.05485 13.0695 7.58074 12.7194 7.23061C12.3693 6.88049 11.8951 6.68263 11.4 6.68Z" fill="white"/>
<path d="M19.2 25.15C19.0326 25.1492 18.8717 25.0849 18.75 24.97C18.6345 24.8506 18.57 24.6911 18.57 24.525C18.57 24.3589 18.6345 24.1993 18.75 24.08L21.75 21.08C21.8677 20.9652 22.0256 20.9009 22.19 20.9009C22.3544 20.9009 22.5123 20.9652 22.63 21.08C22.7455 21.1993 22.81 21.3589 22.81 21.525C22.81 21.6911 22.7455 21.8506 22.63 21.97L19.63 24.97C19.5155 25.0836 19.3613 25.1482 19.2 25.15Z" fill="white"/>
<path d="M22.17 25.15C22.0884 25.1504 22.0076 25.1347 21.9321 25.1039C21.8566 25.073 21.7879 25.0275 21.73 24.97L18.73 21.97C18.6208 21.8502 18.562 21.693 18.5658 21.531C18.5695 21.369 18.6356 21.2147 18.7501 21.1001C18.8647 20.9856 19.019 20.9195 19.181 20.9158C19.343 20.912 19.5002 20.9708 19.62 21.08L22.62 24.08C22.7355 24.1994 22.8 24.3589 22.8 24.525C22.8 24.6911 22.7355 24.8506 22.62 24.97C22.5609 25.0287 22.4906 25.0749 22.4133 25.1058C22.336 25.1367 22.2532 25.1518 22.17 25.15Z" fill="white"/>
<path d="M30.57 15.49C30.4884 15.4904 30.4076 15.4747 30.3321 15.4438C30.2566 15.4129 30.1879 15.3675 30.13 15.31C30.0707 15.2531 30.0235 15.1847 29.9913 15.1091C29.9591 15.0335 29.9425 14.9522 29.9425 14.87C29.9425 14.7878 29.9591 14.7065 29.9913 14.6308C30.0235 14.5552 30.0707 14.4869 30.13 14.43L33.13 11.43C33.2517 11.3347 33.4041 11.2875 33.5583 11.2973C33.7125 11.3071 33.8577 11.3732 33.9663 11.4831C34.075 11.593 34.1394 11.7389 34.1475 11.8932C34.1555 12.0475 34.1066 12.1994 34.01 12.32L31.01 15.32C30.8915 15.4324 30.7333 15.4935 30.57 15.49Z" fill="white"/>
<path d="M33.54 15.49C33.4584 15.4904 33.3776 15.4747 33.3021 15.4438C33.2266 15.413 33.1579 15.3675 33.1 15.31L30.1 12.31C30.03 12.2552 29.9724 12.1863 29.931 12.1076C29.8896 12.029 29.8653 11.9425 29.8596 11.8539C29.854 11.7652 29.8672 11.6763 29.8983 11.5931C29.9295 11.5099 29.9779 11.4342 30.0404 11.371C30.1028 11.3078 30.178 11.2585 30.2608 11.2264C30.3437 11.1944 30.4324 11.1802 30.5212 11.1848C30.6099 11.1894 30.6967 11.2128 30.7757 11.2533C30.8548 11.2938 30.9244 11.3506 30.98 11.42L33.98 14.42C34.0393 14.4769 34.0865 14.5452 34.1187 14.6209C34.1509 14.6965 34.1675 14.7778 34.1675 14.86C34.1675 14.9422 34.1509 15.0235 34.1187 15.0991C34.0865 15.1748 34.0393 15.2431 33.98 15.3C33.9229 15.3593 33.8546 15.4066 33.7791 15.4392C33.7036 15.4719 33.6223 15.4891 33.54 15.49Z" fill="white"/>
<path d="M7.31 34.32C7.18698 34.3179 7.06727 34.2798 6.96564 34.2105C6.86402 34.1411 6.78493 34.0435 6.73814 33.9297C6.69134 33.8159 6.67889 33.6909 6.70233 33.5701C6.72576 33.4493 6.78405 33.3381 6.87 33.25L9.87 30.25C9.92556 30.1807 9.99517 30.1239 10.0742 30.0833C10.1533 30.0428 10.2401 30.0194 10.3288 30.0148C10.4176 30.0102 10.5063 30.0244 10.5891 30.0565C10.672 30.0885 10.7472 30.1378 10.8096 30.201C10.8721 30.2642 10.9205 30.3399 10.9517 30.4231C10.9828 30.5063 10.996 30.5952 10.9904 30.6839C10.9847 30.7726 10.9604 30.859 10.919 30.9377C10.8776 31.0163 10.82 31.0852 10.75 31.14L7.75 34.14C7.69211 34.1975 7.62344 34.243 7.54794 34.2739C7.47243 34.3047 7.39158 34.3204 7.31 34.32Z" fill="white"/>
<path d="M10.28 34.32C10.1984 34.3204 10.1176 34.3047 10.0421 34.2738C9.96656 34.243 9.89789 34.1975 9.84 34.14L6.84 31.14C6.74339 31.0194 6.69445 30.8675 6.7025 30.7132C6.71055 30.5589 6.77502 30.413 6.88366 30.3031C6.99229 30.1932 7.13752 30.1271 7.29172 30.1173C7.44592 30.1075 7.59834 30.1547 7.72 30.25L10.72 33.25C10.8059 33.338 10.8642 33.4493 10.8877 33.5701C10.9111 33.6909 10.8987 33.8159 10.8519 33.9297C10.8051 34.0435 10.726 34.1411 10.6244 34.2104C10.5227 34.2798 10.403 34.3179 10.28 34.32Z" fill="white"/>
<path d="M27 34.32C26.8326 34.3192 26.6717 34.2549 26.55 34.14C26.4345 34.0206 26.37 33.8611 26.37 33.695C26.37 33.5289 26.4345 33.3694 26.55 33.25L29.55 30.25C29.6677 30.1352 29.8256 30.0709 29.99 30.0709C30.1544 30.0709 30.3123 30.1352 30.43 30.25C30.5455 30.3694 30.61 30.5289 30.61 30.695C30.61 30.8611 30.5455 31.0206 30.43 31.14L27.43 34.14C27.3155 34.2537 27.1613 34.3182 27 34.32Z" fill="white"/>
<path d="M30 34.32C29.9184 34.3204 29.8376 34.3047 29.7621 34.2738C29.6866 34.2429 29.6179 34.1975 29.56 34.14L26.56 31.14C26.4508 31.0202 26.392 30.863 26.3958 30.701C26.3995 30.539 26.4656 30.3847 26.5801 30.2701C26.6947 30.1555 26.849 30.0895 27.011 30.0858C27.173 30.082 27.3302 30.1408 27.45 30.25L30.45 33.25C30.5655 33.3693 30.63 33.5289 30.63 33.695C30.63 33.8611 30.5655 34.0206 30.45 34.14C30.3909 34.1987 30.3206 34.2449 30.2433 34.2758C30.166 34.3067 30.0833 34.3217 30 34.32Z" fill="white"/>
<path d="M43 25.15C42.877 25.1479 42.7573 25.1098 42.6556 25.0405C42.554 24.9711 42.4749 24.8735 42.4281 24.7597C42.3813 24.6459 42.3689 24.5209 42.3923 24.4001C42.4158 24.2793 42.4741 24.1681 42.56 24.08L45.56 21.08C45.6817 20.9848 45.8341 20.9376 45.9883 20.9473C46.1425 20.9571 46.2877 21.0233 46.3963 21.1331C46.505 21.243 46.5694 21.389 46.5775 21.5433C46.5855 21.6976 46.5366 21.8494 46.44 21.97L43.44 24.97C43.3821 25.0275 43.3134 25.073 43.2379 25.1039C43.1624 25.1347 43.0816 25.1504 43 25.15Z" fill="white"/>
<path d="M45.94 25.15C45.7794 25.159 45.6217 25.1052 45.5 25L42.5 22C42.4034 21.8794 42.3545 21.7276 42.3625 21.5733C42.3706 21.419 42.435 21.273 42.5437 21.1631C42.6523 21.0533 42.7975 20.9871 42.9517 20.9773C43.1059 20.9675 43.2583 21.0148 43.38 21.11L46.38 24.11C46.466 24.198 46.5242 24.3093 46.5477 24.4301C46.5711 24.5509 46.5587 24.6759 46.5119 24.7897C46.4651 24.9035 46.386 25.0011 46.2844 25.0705C46.1827 25.1398 46.063 25.1779 45.94 25.18V25.15Z" fill="white"/>
</g>
<defs>
<clipPath id="clip0_4_2">
<rect width="53.25" height="53.25" fill="white"/>
</clipPath>
</defs>
</svg>
