<svg xmlns="http://www.w3.org/2000/svg" viewBox="0 0 53.25 53.25"><defs><style>.cls-1{fill:#262626;}</style></defs><g id="Слой_2" data-name="Слой 2"><g id="Layer_1" data-name="Layer 1"><path class="cls-1" d="M29.7,32.22a.62.62,0,0,1-.44-.18l-8-8a.61.61,0,0,1,0-.88L43.41.91a3.08,3.08,0,0,1,4.37,0l4.56,4.56a3.08,3.08,0,0,1,0,4.37L30.14,32A.62.62,0,0,1,29.7,32.22Zm-7.17-8.67,7.17,7.17L51.46,9a1.85,1.85,0,0,0,0-2.61L46.9,1.79a1.85,1.85,0,0,0-2.61,0Z"/><path class="cls-1" d="M17.62,36.25a.62.62,0,0,1-.44-.18.66.66,0,0,1-.15-.64l4-12.08a.62.62,0,0,1,.45-.41.6.6,0,0,1,.58.17l8.05,8.05a.6.6,0,0,1,.17.58.62.62,0,0,1-.41.45l-12.08,4A.64.64,0,0,1,17.62,36.25Zm4.3-11.54-3.31,9.93,9.93-3.31Z"/><path class="cls-1" d="M26.08,27.8a.63.63,0,0,1-.44-.19.61.61,0,0,1,0-.88L44.84,7.52a.63.63,0,0,1,.89.89L26.52,27.61A.63.63,0,0,1,26.08,27.8Z"/><path class="cls-1" d="M49.79,13.09a.66.66,0,0,1-.45-.18l-9-9A.63.63,0,1,1,41.23,3l9,9a.64.64,0,0,1,0,.89A.62.62,0,0,1,49.79,13.09Z"/><path class="cls-1" d="M24.76,33.87a.62.62,0,0,1-.44-.18l-4.76-4.76a.62.62,0,0,1,.88-.88l4.76,4.76a.63.63,0,0,1,0,.88A.62.62,0,0,1,24.76,33.87Z"/><path class="cls-1" d="M33.37,8.45a.52.52,0,0,1-.21,0,19.27,19.27,0,0,0-6.54-1.16A.63.63,0,0,1,26,6.62v-6A.62.62,0,0,1,26.62,0a26.31,26.31,0,0,1,11.6,2.69.62.62,0,1,1-.55,1.12A25.15,25.15,0,0,0,27.25,1.26V6a20.66,20.66,0,0,1,6.34,1.23A.62.62,0,0,1,34,8,.63.63,0,0,1,33.37,8.45Z"/><path class="cls-1" d="M26.62,53.25A26.62,26.62,0,0,1,6,9.83L3.36,7.21a.61.61,0,0,1-.16-.6.58.58,0,0,1,.44-.44L17.51,2.45a.64.64,0,0,1,.6.16.62.62,0,0,1,.16.61L14.56,17.09a.64.64,0,0,1-.45.44.64.64,0,0,1-.6-.16L11.13,15A19.1,19.1,0,0,0,7.25,26.62a19.38,19.38,0,1,0,37.59-6.53A.62.62,0,0,1,46,19.66a20.61,20.61,0,1,1-40,7,20.39,20.39,0,0,1,4.59-13,.66.66,0,0,1,.45-.23.63.63,0,0,1,.48.19l2.11,2.11L16.78,3.94,5,7.09,7.26,9.35a.61.61,0,0,1,0,.84A25.38,25.38,0,1,0,52,26.62a25,25,0,0,0-2.56-11,.62.62,0,0,1,.28-.84.63.63,0,0,1,.84.29,26.3,26.3,0,0,1,2.69,11.59A26.65,26.65,0,0,1,26.62,53.25Z"/></g></g></svg>