<svg width="98" height="60" viewBox="0 0 98 60" fill="none" xmlns="http://www.w3.org/2000/svg">
<path d="M22.9281 37H18.2081V9.04H25.5681L34.0081 26.6L42.4481 9.04H49.7681V37H45.0481V15.16L35.2881 34.56H32.6481L22.9281 15.16V37ZM70.3041 37H65.0241L53.7841 9.04H59.0641L67.6641 29.92L76.2641 9.04H81.5441L70.3041 37Z" fill="black"/>
<path d="M12.1453 13.405C10.368 13.405 9.47934 14.222 9.47934 15.856V25.187C9.47934 27.1937 8.53334 28.369 6.64134 28.713C8.53334 29.0283 9.47934 30.1893 9.47934 32.196V42.301C9.47934 43.0463 9.68001 43.5623 10.0813 43.849C10.5113 44.1357 11.314 44.279 12.4893 44.279V48.278H11.0273C7.12868 48.278 5.17934 46.386 5.17934 42.602V33.314C5.17934 32.368 5.00734 31.7087 4.66334 31.336C4.31934 30.9347 3.77468 30.734 3.02934 30.734H1.99734V26.735H3.02934C3.77468 26.735 4.31934 26.5343 4.66334 26.133C5.00734 25.7317 5.17934 25.0437 5.17934 24.069V15.125C5.17934 11.341 7.12868 9.449 11.0273 9.449H12.4893V13.448C12.4033 13.4193 12.2887 13.405 12.1453 13.405Z" fill="black"/>
<path d="M86.9753 48.278H85.5133V44.279C86.6887 44.279 87.477 44.1357 87.8783 43.849C88.3083 43.5623 88.5233 43.0463 88.5233 42.301V32.196C88.5233 30.1893 89.4693 29.0283 91.3613 28.713C89.4693 28.369 88.5233 27.1937 88.5233 25.187V15.856C88.5233 14.9673 88.2797 14.3367 87.7923 13.964C87.3337 13.5627 86.875 13.362 86.4163 13.362H86.2873L85.5133 13.448V9.449H86.9753C90.874 9.449 92.8233 11.341 92.8233 15.125V24.069C92.8233 25.0437 92.9953 25.7317 93.3393 26.133C93.6833 26.5343 94.228 26.735 94.9733 26.735H96.0053V30.734H94.9733C94.228 30.734 93.6833 30.9347 93.3393 31.336C92.9953 31.7087 92.8233 32.368 92.8233 33.314V42.602C92.8233 46.386 90.874 48.278 86.9753 48.278Z" fill="black"/>
<path d="M19.1164 49H17.5824V39.913H19.9744L22.7174 45.62L25.4604 39.913H27.8394V49H26.3054V41.902L23.1334 48.207H22.2754L19.1164 41.902V49ZM41.2996 39.913V41.356H36.4506V43.761H40.8056V45.126H36.4506V47.557H41.4556V49H34.9166V39.913H41.2996ZM51.0924 39.913C52.7218 39.913 53.9741 40.3117 54.8494 41.109C55.7248 41.8977 56.1624 42.9983 56.1624 44.411C56.1624 45.8237 55.7378 46.9417 54.8884 47.765C54.0391 48.5883 52.7391 49 50.9884 49H47.9724V39.913H51.0924ZM54.6154 44.45C54.6154 42.37 53.4238 41.33 51.0404 41.33H49.5064V47.557H51.2094C52.3101 47.557 53.1508 47.297 53.7314 46.777C54.3208 46.2483 54.6154 45.4727 54.6154 44.45ZM62.6914 39.913H64.2254V49H62.6914V39.913ZM72.5782 46.933L71.6682 49H70.0302L74.0342 39.913H75.6722L79.6762 49H78.0382L77.1282 46.933H72.5782ZM76.5042 45.516L74.8532 41.772L73.2022 45.516H76.5042Z" fill="black"/>
</svg>
