<svg width="98" height="60" viewBox="0 0 98 60" fill="none" xmlns="http://www.w3.org/2000/svg">
<rect width="98" height="60"/>
<path d="M22.9281 43H18.2081V15.04H25.5681L34.0081 32.6L42.4481 15.04H49.7681V43H45.0481V21.16L35.2881 40.56H32.6481L22.9281 21.16V43ZM70.3041 43H65.0241L53.7841 15.04H59.0641L67.6641 35.92L76.2641 15.04H81.5441L70.3041 43Z" fill="black"/>
<path d="M17.1453 13.405C15.368 13.405 14.4793 14.222 14.4793 15.856V25.187C14.4793 27.1937 13.5333 28.369 11.6413 28.713C13.5333 29.0283 14.4793 30.1893 14.4793 32.196V42.301C14.4793 43.0463 14.68 43.5623 15.0813 43.849C15.5113 44.1357 16.314 44.279 17.4893 44.279V48.278H16.0273C12.1287 48.278 10.1793 46.386 10.1793 42.602V33.314C10.1793 32.368 10.0073 31.7087 9.66334 31.336C9.31934 30.9347 8.77468 30.734 8.02934 30.734H6.99734V26.735H8.02934C8.77468 26.735 9.31934 26.5343 9.66334 26.133C10.0073 25.7317 10.1793 25.0437 10.1793 24.069V15.125C10.1793 11.341 12.1287 9.449 16.0273 9.449H17.4893V13.448C17.4033 13.4193 17.2887 13.405 17.1453 13.405Z" fill="black"/>
<path d="M82.9753 48.278H81.5133V44.279C82.6887 44.279 83.477 44.1357 83.8783 43.849C84.3083 43.5623 84.5233 43.0463 84.5233 42.301V32.196C84.5233 30.1893 85.4693 29.0283 87.3613 28.713C85.4693 28.369 84.5233 27.1937 84.5233 25.187V15.856C84.5233 14.9673 84.2797 14.3367 83.7923 13.964C83.3337 13.5627 82.875 13.362 82.4163 13.362H82.2873L81.5133 13.448V9.449H82.9753C86.874 9.449 88.8233 11.341 88.8233 15.125V24.069C88.8233 25.0437 88.9953 25.7317 89.3393 26.133C89.6833 26.5343 90.228 26.735 90.9733 26.735H92.0053V30.734H90.9733C90.228 30.734 89.6833 30.9347 89.3393 31.336C88.9953 31.7087 88.8233 32.368 88.8233 33.314V42.602C88.8233 46.386 86.874 48.278 82.9753 48.278Z" fill="black"/>
</svg>
