<svg xmlns="http://www.w3.org/2000/svg" viewBox="0 0 53.25 53.25"><defs><style>.cls-1{fill:#262626;}</style></defs><g id="Слой_2" data-name="Слой 2"><g id="Layer_1" data-name="Layer 1"><path class="cls-1" d="M37.42,53.25H15.83a.63.63,0,0,1-.63-.63v-6a.63.63,0,0,1,.63-.62H37.42a.63.63,0,0,1,.63.62v6A.63.63,0,0,1,37.42,53.25ZM16.45,52H36.8V47.25H16.45Z"/><path class="cls-1" d="M50.62,47.25h-48A2.63,2.63,0,0,1,0,44.62v-4A.62.62,0,0,1,.62,40h52a.63.63,0,0,1,.63.62v4A2.63,2.63,0,0,1,50.62,47.25Zm-49.37-6v3.37A1.38,1.38,0,0,0,2.62,46h48A1.38,1.38,0,0,0,52,44.62V41.25Z"/><path class="cls-1" d="M52.62,41.25H.62A.63.63,0,0,1,0,40.62v-38A2.63,2.63,0,0,1,2.62,0h48a2.63,2.63,0,0,1,2.63,2.62v38A.63.63,0,0,1,52.62,41.25ZM1.25,40H52V2.62a1.38,1.38,0,0,0-1.38-1.37h-48A1.38,1.38,0,0,0,1.25,2.62Z"/><path class="cls-1" d="M42.62,53.25h-32a.63.63,0,0,1,0-1.25h32a.63.63,0,1,1,0,1.25Z"/><path class="cls-1" d="M22.62,26.25a.58.58,0,0,1-.28-.07.61.61,0,0,1-.34-.56v-16a.62.62,0,0,1,1-.5l11,8a.62.62,0,0,1,0,1l-11,8A.63.63,0,0,1,22.62,26.25Zm.63-15.4V24.4l9.31-6.78Z"/><path class="cls-1" d="M46.62,34.25h-9a.63.63,0,0,1,0-1.25h9a.63.63,0,1,1,0,1.25Z"/><path class="cls-1" d="M30.62,34.25h-24a.63.63,0,0,1,0-1.25h24a.63.63,0,1,1,0,1.25Z"/><path class="cls-1" d="M32.62,36.25a2.63,2.63,0,1,1,2.63-2.63A2.63,2.63,0,0,1,32.62,36.25Zm0-4A1.38,1.38,0,1,0,34,33.62,1.38,1.38,0,0,0,32.62,32.25Z"/></g></g></svg>