<?xml version="1.0" encoding="UTF-8"?>
<svg id="Layer_1" data-name="Layer 1" xmlns="http://www.w3.org/2000/svg" version="1.1" viewBox="0 0 53.2 53.2">
  <defs>
    <style>
      .cls-1 {
        fill: #fff;
        stroke-width: 0px;
      }
    </style>
  </defs>
  <g id="_Слой_2" data-name="Слой 2">
    <g id="Layer_1-2" data-name="Layer 1">
      <path class="cls-1" d="M37.4,53.2H15.8c-.3,0-.6-.3-.6-.6h0v-6c0-.3.3-.6.6-.6h21.6c.3,0,.6.3.6.6v6c0,.3-.3.6-.6.6h0ZM16.5,52h20.3v-4.8h-20.3v4.8Z"/>
      <path class="cls-1" d="M50.6,47.2H2.6c-1.4,0-2.6-1.2-2.6-2.6v-4c0-.3.3-.6.6-.6h52c.3,0,.6.3.6.6v4c0,1.5-1.2,2.6-2.6,2.6h0ZM1.2,41.2v3.4c0,.8.6,1.4,1.4,1.4h48c.8,0,1.4-.6,1.4-1.4h0v-3.4H1.2Z"/>
      <path class="cls-1" d="M52.6,41.2H.6c-.3,0-.6-.3-.6-.6V2.6C0,1.2,1.2,0,2.6,0h48c1.4,0,2.6,1.2,2.6,2.6v38c0,.3-.3.6-.6.6h0ZM1.2,40h50.8V2.6c0-.8-.6-1.4-1.4-1.4H2.6c-.8,0-1.4.6-1.4,1.4v37.4Z"/>
      <path class="cls-1" d="M42.6,53.2H10.6c-.3,0-.6-.4-.5-.7,0-.3.3-.5.5-.5h32c.3,0,.7.2.7.5,0,.3-.2.7-.5.7,0,0-.1,0-.2,0Z"/>
      <path class="cls-1" d="M22.6,26.2c0,0-.2,0-.3,0-.2-.1-.3-.3-.3-.6V9.6c0-.3.3-.6.6-.6.1,0,.3,0,.4.1l11,8c.3.2.3.6.1.9,0,0,0,0-.1.1l-11,8c-.1,0-.2.1-.4.1ZM23.2,10.9v13.5l9.3-6.8-9.3-6.8Z"/>
      <path class="cls-1" d="M46.6,34.2h-9c-.3,0-.6-.4-.5-.7,0-.3.3-.5.5-.5h9c.3,0,.7.2.7.5,0,.3-.2.7-.5.7,0,0-.1,0-.2,0Z"/>
      <path class="cls-1" d="M30.6,34.2H6.6c-.3,0-.6-.4-.5-.7,0-.3.3-.5.5-.5h24c.3,0,.7.2.7.5,0,.3-.2.7-.5.7,0,0-.1,0-.2,0Z"/>
      <path class="cls-1" d="M32.6,36.2c-1.5,0-2.6-1.2-2.6-2.6s1.2-2.6,2.6-2.6,2.6,1.2,2.6,2.6-1.2,2.6-2.6,2.6h0ZM32.6,32.2c-.8,0-1.4.6-1.4,1.4,0,.8.6,1.4,1.4,1.4.8,0,1.4-.6,1.4-1.4,0,0,0,0,0,0,0-.8-.6-1.4-1.4-1.4Z"/>
    </g>
  </g>
</svg>